<svg height="512pt" viewBox="0 -45 512 511" width="512pt" xmlns="http://www.w3.org/2000/svg"><path d="m71.984375 20.5h.269531c5.523438 0 10-4.476562 10-10s-4.476562-10-10-10h-.269531c-5.523437 0-10 4.476562-10 10s4.476563 10 10 10zm0 0"/><path d="m479.777344.5h-367.554688c-5.523437 0-10 4.476562-10 10s4.476563 10 10 10h367.554688c6.738281 0 12.222656 5.484375 12.222656 12.222656v7.777344h-382c-5.523438 0-10 4.476562-10 10 0 5.515625-4.484375 10-10 10h-70v-27.777344c0-6.738281 5.484375-12.222656 12.222656-12.222656h11.035156c5.519532 0 10-4.476562 10-10s-4.480468-10-10-10h-11.035156c-17.769531 0-32.222656 14.457031-32.222656 32.222656v355.554688c0 17.765625 14.453125 32.222656 32.222656 32.222656h447.554688c17.769531 0 32.222656-14.457031 32.222656-32.222656v-355.554688c0-17.765625-14.453125-32.222656-32.222656-32.222656zm0 400h-447.554688c-6.738281 0-12.222656-5.484375-12.222656-12.222656v-307.777344h70c13.039062 0 24.160156-8.359375 28.285156-20h373.714844v327.777344c0 6.738281-5.484375 12.222656-12.222656 12.222656zm0 0"/><path d="m126 287.421875c5.523438 0 10-4.476563 10-10 0-5.519531-4.476562-10-10-10h-16c-5.523438 0-10 4.480469-10 10 0 5.523437 4.476562 10 10 10zm0 0"/><path d="m130.421875 312.488281-15.035156 5.472657c-5.191407 1.886718-7.867188 7.625-5.976563 12.816406 1.476563 4.0625 5.3125 6.582031 9.398438 6.582031 1.132812 0 2.289062-.195313 3.417968-.605469l15.035157-5.472656c5.1875-1.886719 7.863281-7.625 5.976562-12.816406-1.890625-5.191406-7.628906-7.867188-12.816406-5.976563zm0 0"/><path d="m396.613281 317.960938-15.035156-5.472657c-5.191406-1.890625-10.925781.785157-12.816406 5.976563-1.886719 5.191406.789062 10.929687 5.976562 12.816406l15.035157 5.472656c1.128906.410156 2.285156.605469 3.417968.605469 4.085938 0 7.921875-2.519531 9.398438-6.582031 1.890625-5.1875-.785156-10.929688-5.976563-12.816406zm0 0"/><path d="m402 267.421875h-16c-5.523438 0-10 4.480469-10 10 0 5.523437 4.476562 10 10 10h16c5.523438 0 10-4.476563 10-10 0-5.519531-4.476562-10-10-10zm0 0"/><path d="m368.761719 236.378906c1.480469 4.0625 5.3125 6.585938 9.398437 6.585938 1.136719 0 2.292969-.195313 3.417969-.605469l15.035156-5.472656c5.191407-1.890625 7.867188-7.628907 5.976563-12.816407-1.886719-5.191406-7.625-7.867187-12.816406-5.980468l-15.035157 5.472656c-5.1875 1.890625-7.863281 7.628906-5.976562 12.816406zm0 0"/><path d="m375.503906 177.148438c-3.550781-4.230469-9.859375-4.78125-14.089844-1.234376l-12.257812 10.285157c-4.230469 3.550781-4.78125 9.859375-1.230469 14.089843 1.976563 2.355469 4.808594 3.574219 7.664063 3.574219 2.269531 0 4.550781-.769531 6.421875-2.339843l12.257812-10.285157c4.230469-3.550781 4.78125-9.859375 1.234375-14.089843zm0 0"/><path d="m334 142.324219c-4.78125-2.761719-10.898438-1.125-13.660156 3.660156l-8 13.855469c-2.761719 4.78125-1.125 10.898437 3.660156 13.660156 1.574219.910156 3.292969 1.339844 4.992188 1.339844 3.453124 0 6.816406-1.792969 8.667968-5l8-13.855469c2.761719-4.78125 1.121094-10.898437-3.660156-13.660156zm0 0"/><path d="m276.835938 159.246094c.589843.105468 1.171874.15625 1.75.15625 4.761718 0 8.980468-3.414063 9.835937-8.269532l2.777344-15.753906c.960937-5.441406-2.671875-10.625-8.113281-11.585937-5.4375-.957031-10.625 2.671875-11.582032 8.113281l-2.777344 15.757812c-.960937 5.4375 2.671876 10.625 8.109376 11.582032zm0 0"/><path d="m223.578125 151.132812c.855469 4.855469 5.074219 8.269532 9.835937 8.269532.574219 0 1.160157-.050782 1.746094-.15625 5.441406-.957032 9.074219-6.144532 8.113282-11.582032l-2.777344-15.757812c-.957032-5.441406-6.144532-9.070312-11.585938-8.113281-5.4375.960937-9.070312 6.148437-8.109375 11.585937zm0 0"/><path d="m191.660156 145.984375c-2.761718-4.785156-8.878906-6.421875-13.660156-3.660156s-6.421875 8.875-3.660156 13.660156l8 13.855469c1.851562 3.207031 5.214844 5 8.667968 5 1.699219 0 3.417969-.429688 4.992188-1.339844 4.785156-2.761719 6.421875-8.875 3.660156-13.660156zm0 0"/><path d="m162.84375 186.199219-12.257812-10.285157c-4.230469-3.546874-10.539063-2.996093-14.089844 1.234376-3.546875 4.230468-2.996094 10.539062 1.234375 14.089843l12.257812 10.285157c1.875 1.570312 4.152344 2.339843 6.421875 2.339843 2.855469 0 5.6875-1.214843 7.664063-3.574219 3.550781-4.230468 3-10.539062-1.230469-14.089843zm0 0"/><path d="m137.261719 223.5625-15.035157-5.472656c-5.191406-1.886719-10.929687.789062-12.816406 5.980468-1.890625 5.1875.785156 10.925782 5.976563 12.816407l15.035156 5.472656c1.128906.410156 2.28125.605469 3.417969.605469 4.085937 0 7.917968-2.523438 9.398437-6.585938 1.886719-5.1875-.789062-10.925781-5.976562-12.816406zm0 0"/><path d="m305.058594 192.453125c-4.785156-2.761719-10.898438-1.121094-13.660156 3.660156l-29.917969 51.820313c-1.777344-.328125-3.609375-.511719-5.480469-.511719-16.542969 0-30 13.460937-30 30 0 16.542969 13.457031 30 30 30s30-13.457031 30-30c0-7.425781-2.71875-14.226563-7.207031-19.472656l29.925781-51.835938c2.757812-4.78125 1.121094-10.898437-3.660156-13.660156zm-49.058594 94.96875c-5.511719 0-10-4.484375-10-10 0-5.511719 4.488281-10 10-10 5.515625 0 10 4.488281 10 10 0 5.515625-4.484375 10-10 10zm0 0"/><path d="m291 330.066406h-41.035156c-5.523438 0-10 4.480469-10 10 0 5.523438 4.476562 10 10 10h41.035156c5.523438 0 10-4.476562 10-10 0-5.519531-4.476562-10-10-10zm0 0"/><path d="m221.234375 330.066406h-.234375c-5.523438 0-10 4.476563-10 10 0 5.523438 4.476562 10 10 10h.234375c5.523437 0 10-4.476562 10-10 0-5.523437-4.476563-10-10-10zm0 0"/><path d="m472 70.5h-41.035156c-5.523438 0-10 4.480469-10 10 0 5.523438 4.476562 10 10 10h41.035156c5.523438 0 10-4.476562 10-10 0-5.519531-4.476562-10-10-10zm0 0"/><path d="m402.234375 70.5h-.234375c-5.523438 0-10 4.476562-10 10s4.476562 10 10 10h.234375c5.523437 0 10-4.476562 10-10s-4.476563-10-10-10zm0 0"/></svg>