<svg height="512" viewBox="0 0 192 192" width="512" 
xmlns="http://www.w3.org/2000/svg" xmlns:xlink="http://www.w3.org/1999/xlink">
<linearGradient id="New_Gradient_Swatch_1" gradientUnits="userSpaceOnUse" x1="82.745" x2="173.255" y1="173.255" y2="82.745"><stop offset="0" stop-color="#34cdfa"/><stop offset="1" stop-color="#e8d9f1"/></linearGradient><rect fill="#e6f9fe" height="152" rx="8" width="144" x="8"/><path d="m40 128a8 8 0 0 1 -8-8v-120h-16a8 8 0 0 0 -8 8v136a8 8 0 0 0 8 8h128a8 8 0 0 0 8-8v-16z" fill="#ccf2fe"/><g fill="#99e6fd"><path d="m48 64h16v32h-16z"/><path d="m72 48h16v48h-16z"/><path d="m96 32h16v56h-16z"/></g><path d="m40 88h64v16h-64z" fill="#34cdfa"/><path d="m185.569 112.155-13.027-2.605 7.369-11.05a8 8 0 0 0 -1-10.094l-11.311-11.318a8 8 0 0 0 -10.1-1l-11.05 7.37-2.6-13.027a8 8 0 0 0 -7.85-6.431h-16a8 8 0 0 0 -7.845 6.431l-2.605 13.027-11.05-7.369a8 8 0 0 0 -10.095 1l-11.317 11.311a8 8 0 0 0 -1 10.094l7.369 11.054-13.027 2.605a8 8 0 0 0 -6.43 7.847v16a8 8 0 0 0 6.431 7.845l13.027 2.6-7.369 11.055a8 8 0 0 0 1 10.1l11.311 11.312a8 8 0 0 0 10.095 1l11.053-7.369 2.605 13.027a8 8 0 0 0 7.847 6.43h16a8 8 0 0 0 7.845-6.431l2.6-13.027 11.053 7.369a8 8 0 0 0 10.1-1l11.314-11.311a8 8 0 0 0 1-10.1l-7.369-11.053 13.027-2.6a8 8 0 0 0 6.43-7.847v-16a8 8 0 0 0 -6.431-7.845zm-33.569 15.845a24 24 0 1 1 -24-24 24.028 24.028 0 0 1 24 24z" fill="url(#New_Gradient_Swatch_1)"/></svg>