<svg height="512" viewBox="0 0 192 192" width="512" xmlns="http://www.w3.org/2000/svg"><g id="_06-digital_setting" data-name="06-digital setting"><path d="m24 16h112v40h16v-48a8 8 0 0 0 -8-8h-128a8 8 0 0 0 -8 8v136a8 8 0 0 0 8 8h40v-16h-32z"/><path d="m72 48h16v24h-16z"/><path d="m96 32h16v32h-16z"/><path d="m185.569 112.155-13.027-2.605 7.369-11.05a8 8 0 0 0 -1-10.094l-11.311-11.318a8 8 0 0 0 -10.1-1l-11.05 7.37-2.6-13.027a8 8 0 0 0 -7.85-6.431h-16a8 8 0 0 0 -7.845 6.431l-2.605 13.027-11.05-7.369a8 8 0 0 0 -10.095 1l-10.915 10.911h-13.49v-24h-16v24h-8v16h39.758l3.7 5.55-13.027 2.605a8 8 0 0 0 -6.431 7.845v16a8 8 0 0 0 6.431 7.845l13.027 2.6-7.369 11.055a8 8 0 0 0 1 10.1l11.311 11.312a8 8 0 0 0 10.095 1l11.053-7.369 2.605 13.027a8 8 0 0 0 7.847 6.43h16a8 8 0 0 0 7.845-6.431l2.6-13.027 11.053 7.369a8 8 0 0 0 10.1-1l11.314-11.311a8 8 0 0 0 1-10.1l-7.369-11.053 13.027-2.6a8 8 0 0 0 6.43-7.847v-16a8 8 0 0 0 -6.431-7.845zm-9.569 17.286-11.266 2.259a8 8 0 0 0 -6.092 5.539 31.81 31.81 0 0 1 -2.442 5.9 8 8 0 0 0 .388 8.229l6.372 9.559-2.038 2.038-9.559-6.372a8 8 0 0 0 -8.229-.388 31.81 31.81 0 0 1 -5.9 2.442 8 8 0 0 0 -5.539 6.092l-2.254 11.261h-2.882l-2.254-11.266a8 8 0 0 0 -5.539-6.092 31.81 31.81 0 0 1 -5.9-2.442 8 8 0 0 0 -8.229.388l-9.559 6.372-2.038-2.038 6.372-9.559a8 8 0 0 0 .388-8.229 31.81 31.81 0 0 1 -2.442-5.9 8 8 0 0 0 -6.092-5.539l-11.266-2.254v-2.882l11.266-2.254a8 8 0 0 0 6.092-5.539 31.81 31.81 0 0 1 2.442-5.9 8 8 0 0 0 -.388-8.229l-6.372-9.559 2.038-2.038 9.559 6.372a8 8 0 0 0 8.229.388 31.81 31.81 0 0 1 5.9-2.442 8 8 0 0 0 5.539-6.092l2.254-11.266h2.882l2.259 11.266a8 8 0 0 0 5.539 6.092 31.81 31.81 0 0 1 5.9 2.442 8 8 0 0 0 8.229-.388l9.559-6.372 2.038 2.038-6.372 9.559a8 8 0 0 0 -.388 8.229 31.81 31.81 0 0 1 2.442 5.9 8 8 0 0 0 6.092 5.539l11.261 2.254z"/><path d="m128 104a24 24 0 1 0 24 24 24.028 24.028 0 0 0 -24-24zm0 32a8 8 0 1 1 8-8 8.009 8.009 0 0 1 -8 8z"/></g></svg>