<svg height="507pt" viewBox="0 -73 507.994 507" width="507pt" xmlns="http://www.w3.org/2000/svg"><path d="m16 16.496094h400v296h-400zm0 0" fill="#656d78"/><path d="m.0078125 16.496094h15.9999995v296h-15.9999995zm0 0" fill="#e6e9ed"/><g fill="#ccd1d9"><path d="m4.007812 168.503906c0-2.207031-1.792968-4-3.9999995-4v8c2.2070315 0 3.9999995-1.789062 3.9999995-4zm0 0"/><path d="m4.007812 192.503906c0-2.207031-1.792968-4-3.9999995-4v8c2.2070315 0 3.9999995-1.789062 3.9999995-4zm0 0"/><path d="m4.007812 216.503906c0-2.207031-1.792968-4-3.9999995-4v8c2.2070315 0 3.9999995-1.789062 3.9999995-4zm0 0"/><path d="m4.007812 240.503906c0-2.207031-1.792968-4-3.9999995-4v8c2.2070315 0 3.9999995-1.789062 3.9999995-4zm0 0"/><path d="m4.007812 264.503906c0-2.207031-1.792968-4-3.9999995-4v8c2.2070315 0 3.9999995-1.789062 3.9999995-4zm0 0"/><path d="m4.007812 288.503906c0-2.207031-1.792968-4-3.9999995-4v8c2.2070315 0 3.9999995-1.789062 3.9999995-4zm0 0"/><path d="m4.007812 144.503906c0-2.207031-1.792968-4-3.9999995-4v8c2.2070315 0 3.9999995-1.789062 3.9999995-4zm0 0"/><path d="m4.007812 120.503906c0-2.207031-1.792968-4-3.9999995-4v8c2.2070315 0 3.9999995-1.789062 3.9999995-4zm0 0"/><path d="m4.007812 96.503906c0-2.207031-1.792968-4-3.9999995-4v8c2.2070315 0 3.9999995-1.789062 3.9999995-4zm0 0"/><path d="m4.007812 72.503906c0-2.207031-1.792968-4-3.9999995-4v8c2.2070315 0 3.9999995-1.789062 3.9999995-4zm0 0"/><path d="m4.007812 48.503906c0-2.207031-1.792968-4-3.9999995-4v8c2.2070315 0 3.9999995-1.789062 3.9999995-4zm0 0"/><path d="m416 16.496094h-416v-8c0-4.398438 3.601562-8 8-8h400c4.398438 0 8 3.601562 8 8zm0 0"/></g><path d="m12.046875 12.496094c-2.207031 0-4.039063-1.792969-4.039063-4 0-2.207032 1.753907-4 3.953126-4h.085937c2.199219 0 4 1.792968 4 4 0 2.207031-1.800781 4-4 4zm0 0" fill="#e6e9ed"/><path d="m28.046875 12.496094c-2.207031 0-4.039063-1.792969-4.039063-4 0-2.207032 1.753907-4 3.953126-4h.085937c2.199219 0 4 1.792968 4 4 0 2.207031-1.800781 4-4 4zm0 0" fill="#e6e9ed"/><path d="m44.046875 12.496094c-2.207031 0-4.039063-1.792969-4.039063-4 0-2.207032 1.753907-4 3.953126-4h.085937c2.199219 0 4 1.792968 4 4 0 2.207031-1.800781 4-4 4zm0 0" fill="#e6e9ed"/><path d="m72 52.496094h-32c-2.207031 0-4-1.792969-4-4 0-2.207032 1.792969-4 4-4h32c2.207031 0 4 1.792968 4 4 0 2.207031-1.792969 4-4 4zm0 0" fill="#ffce54"/><path d="m208 76.496094h-104c-2.207031 0-4-1.792969-4-4 0-2.207032 1.792969-4 4-4h104c2.207031 0 4 1.792968 4 4 0 2.207031-1.792969 4-4 4zm0 0" fill="#a0d468"/><path d="m88 76.496094h-40c-2.207031 0-4-1.792969-4-4 0-2.207032 1.792969-4 4-4h40c2.207031 0 4 1.792968 4 4 0 2.207031-1.792969 4-4 4zm0 0" fill="#a0d468"/><path d="m304 100.496094h-104c-2.207031 0-4-1.792969-4-4 0-2.207032 1.792969-4 4-4h104c2.207031 0 4 1.792968 4 4 0 2.207031-1.792969 4-4 4zm0 0" fill="#fc6e51"/><path d="m184 100.496094h-128c-2.207031 0-4-1.792969-4-4 0-2.207032 1.792969-4 4-4h128c2.207031 0 4 1.792968 4 4 0 2.207031-1.792969 4-4 4zm0 0" fill="#fc6e51"/><path d="m80 148.496094h-24c-2.207031 0-4-1.792969-4-4 0-2.207032 1.792969-4 4-4h24c2.207031 0 4 1.792968 4 4 0 2.207031-1.792969 4-4 4zm0 0" fill="#ffce54"/><path d="m206.71875 148.496094h-110.71875c-2.207031 0-4-1.792969-4-4 0-2.207032 1.792969-4 4-4h110.71875c2.210938 0 4 1.792968 4 4 0 2.207031-1.789062 4-4 4zm0 0" fill="#ffce54"/><path d="m80 244.496094h-24c-2.207031 0-4-1.792969-4-4 0-2.207032 1.792969-4 4-4h24c2.207031 0 4 1.792968 4 4 0 2.207031-1.792969 4-4 4zm0 0" fill="#ffce54"/><path d="m206.71875 244.496094h-110.71875c-2.207031 0-4-1.792969-4-4 0-2.207032 1.792969-4 4-4h110.71875c2.210938 0 4 1.792968 4 4 0 2.207031-1.789062 4-4 4zm0 0" fill="#ffce54"/><path d="m231.992188 124.496094h-176c-2.207032 0-4-1.792969-4-4 0-2.207032 1.792968-4 4-4h176c2.207031 0 4 1.792968 4 4 0 2.207031-1.792969 4-4 4zm0 0" fill="#4fc1e9"/><path d="m223.992188 172.496094h-72c-2.207032 0-4-1.792969-4-4 0-2.207032 1.792968-4 4-4h72c2.207031 0 4 1.792968 4 4 0 2.207031-1.792969 4-4 4zm0 0" fill="#a0d468"/><path d="m176 196.496094h-128c-2.207031 0-4-1.792969-4-4 0-2.207032 1.792969-4 4-4h128c2.207031 0 4 1.792968 4 4 0 2.207031-1.792969 4-4 4zm0 0" fill="#ac92ec"/><path d="m136 268.496094h-88c-2.207031 0-4-1.792969-4-4 0-2.207032 1.792969-4 4-4h88c2.207031 0 4 1.792968 4 4 0 2.207031-1.792969 4-4 4zm0 0" fill="#ac92ec"/><path d="m264 220.496094h-112c-2.207031 0-4-1.792969-4-4 0-2.207032 1.792969-4 4-4h112c2.207031 0 4 1.792968 4 4 0 2.207031-1.792969 4-4 4zm0 0" fill="#fc6e51"/><path d="m136 220.496094h-80c-2.207031 0-4-1.792969-4-4 0-2.207032 1.792969-4 4-4h80c2.207031 0 4 1.792968 4 4 0 2.207031-1.792969 4-4 4zm0 0" fill="#fc6e51"/><path d="m72 292.496094h-32c-2.207031 0-4-1.792969-4-4 0-2.207032 1.792969-4 4-4h32c2.207031 0 4 1.792968 4 4 0 2.207031-1.792969 4-4 4zm0 0" fill="#ffce54"/><path d="m240 196.496094h-48c-2.207031 0-4-1.792969-4-4 0-2.207032 1.792969-4 4-4h48c2.207031 0 4 1.792968 4 4 0 2.207031-1.792969 4-4 4zm0 0" fill="#ac92ec"/><path d="m135.992188 172.496094h-88c-2.207032 0-4-1.792969-4-4 0-2.207032 1.792968-4 4-4h88c2.207031 0 4 1.792968 4 4 0 2.207031-1.792969 4-4 4zm0 0" fill="#a0d468"/><path d="m456 232.546875v48l-40-48zm0 0" fill="#4fc6e7"/><path d="m456 232.546875 40 40.238281-40 7.761719zm0 0" fill="#44bade"/><path d="m496 272.785156-80 87.761719 40-80zm0 0" fill="#34a7d2"/><path d="m376 280.546875 40 80-10.871094-11.921875-69.128906-75.839844zm0 0" fill="#34a7d2"/><path d="m456 280.546875-40 80-40-80zm0 0" fill="#47bce7"/><path d="m376 232.546875v48l-40-7.761719zm0 0" fill="#44bade"/><path d="m416 232.546875-40 48v-48zm0 0" fill="#4fc6e7"/><path d="m416 232.546875 40 48h-80zm0 0" fill="#4fc1e9"/><path d="m416 232.546875 40 48h-80zm0 0" fill="#55daf9"/><path d="m416 204.527344c-2.207031 0-4-1.789063-4-4v-48c0-2.207032 1.792969-4 4-4s4 1.792968 4 4v48c0 2.210937-1.792969 4-4 4zm0 0" fill="#55daf9"/><path d="m360 220.546875c-1.023438 0-2.046875-.394531-2.832031-1.167969l-32-32c-1.558594-1.5625-1.558594-4.097656 0-5.65625 1.558593-1.5625 4.097656-1.5625 5.65625 0l32 32c1.558593 1.558594 1.558593 4.09375 0 5.65625-.777344.773438-1.800781 1.167969-2.824219 1.167969zm0 0" fill="#55daf9"/><path d="m472 220.546875c-1.023438 0-2.046875-.394531-2.832031-1.167969-1.558594-1.5625-1.558594-4.097656 0-5.65625l32-32c1.558593-1.5625 4.097656-1.5625 5.65625 0 1.558593 1.558594 1.558593 4.09375 0 5.65625l-32 32c-.777344.773438-1.800781 1.167969-2.824219 1.167969zm0 0" fill="#55daf9"/></svg>